<svg width="933" height="932" viewBox="0 0 933 932" fill="none" xmlns="http://www.w3.org/2000/svg">
<g clip-path="url(#clip0_2_60)">
<path d="M235 208.5V741L435.5 557L608.5 741H774L435.5 410.5L350 496V208.5H235Z" fill="#1E1C1A" stroke="black"/>
<path d="M530.5 459.5L457 383L630 208.5H775.5L530.5 459.5Z" fill="#FF8000"/>
<path d="M710.468 111.703C516.068 -46.6968 290.802 45.7032 202.468 111.703C184.868 114.103 184.802 100.37 186.968 93.2032C426.168 -75.5968 645.968 22.8699 725.968 93.2032C731.968 103.603 718.135 109.87 710.468 111.703Z" fill="black"/>
<path d="M111.703 712.468C-46.6968 518.068 45.7032 292.802 111.703 204.468C114.103 186.868 100.37 186.802 93.2032 188.968C-75.5968 428.168 22.8699 647.968 93.2032 727.968C103.603 733.968 109.87 720.135 111.703 712.468Z" fill="black"/>
<path d="M821.278 724.468C979.678 530.068 887.278 304.802 821.278 216.468C818.878 198.868 832.611 198.802 839.778 200.968C1008.58 440.168 910.111 659.968 839.778 739.968C829.378 745.968 823.111 732.135 821.278 724.468Z" fill="black"/>
<path d="M204.968 820.278C399.368 978.678 624.635 886.278 712.968 820.278C730.568 817.878 730.635 831.611 728.468 838.778C489.268 1007.58 269.468 909.111 189.468 838.778C183.468 828.378 197.302 822.111 204.968 820.278Z" fill="black"/>
</g>
<defs>
<clipPath id="clip0_2_60">
<rect width="933" height="932" fill="white"/>
</clipPath>
</defs>
</svg>
