<svg width="2813" height="573" viewBox="0 0 2813 573" fill="none" xmlns="http://www.w3.org/2000/svg">
<g clip-path="url(#clip0_2_106)">
<mask id="mask0_2_106" style="mask-type:luminance" maskUnits="userSpaceOnUse" x="0" y="0" width="2813" height="573">
<path d="M2813 0H0V573H2813V0Z" fill="white"/>
</mask>
<g mask="url(#mask0_2_106)">
<path d="M721.965 181.042V449.186H665.46V181.042H721.965ZM1162.66 181.042L1227.27 384.759H1229.97L1294.75 181.042H1357.55L1265.06 449.186H1192.18L1099.5 181.042H1162.66ZM1855.84 452.785C1832.08 452.785 1810.73 447.386 1791.77 436.589C1772.82 425.791 1757.83 410.136 1746.79 389.617C1735.75 369.104 1730.23 344.327 1730.23 315.294C1730.23 286.02 1735.75 261.125 1746.79 240.61C1757.83 220.094 1772.82 204.437 1791.77 193.639C1810.73 182.842 1832.08 177.443 1855.84 177.443C1879.59 177.443 1900.89 182.842 1919.72 193.639C1938.68 204.437 1953.67 220.094 1964.71 240.61C1975.75 261.125 1981.26 286.02 1981.26 315.294C1981.26 344.569 1975.75 369.461 1964.71 389.98C1953.67 410.375 1938.68 425.972 1919.72 436.77C1900.89 447.447 1879.59 452.785 1855.84 452.785ZM1787.64 315.294C1787.64 343.607 1793.82 365.263 1806.17 380.259C1818.65 395.258 1835.2 402.756 1855.84 402.756C1876.35 402.756 1892.79 395.258 1905.15 380.259C1917.62 365.263 1923.86 343.607 1923.86 315.294C1923.86 286.86 1917.62 265.144 1905.15 250.148C1892.79 235.031 1876.35 227.472 1855.84 227.472C1835.2 227.472 1818.65 235.031 1806.17 250.148C1793.82 265.144 1787.64 286.86 1787.64 315.294Z" fill="white"/>
<path d="M1227.99 302.337L1274.12 183.562H1181.86L1227.99 302.337Z" fill="#FF8000"/>
<path d="M135.586 154.857V462.109L251.267 355.939L351.081 462.109H446.57L251.267 271.41L201.937 320.745V154.857H135.586Z" fill="white" stroke="white"/>
<path d="M306.079 299.682L263.672 255.543L363.487 154.857H447.434L306.079 299.682Z" fill="#FF8000"/>
<path d="M409.915 99.0051C297.752 7.60882 167.782 60.9234 116.817 99.0051C106.662 100.39 106.624 92.466 107.874 88.3306C245.883 -9.06643 372.701 47.7487 418.858 88.3306C422.319 94.3316 414.337 97.9473 409.915 99.0051Z" fill="white"/>
<path d="M64.4485 445.644C-26.9423 333.477 26.369 203.499 64.4485 152.53C65.8334 142.375 57.9098 142.337 53.7747 143.587C-43.6165 281.605 13.1951 408.428 53.7747 454.588C59.7752 458.052 63.3907 450.07 64.4485 445.644Z" fill="white"/>
<path d="M473.848 452.569C565.237 340.399 511.926 210.423 473.848 159.454C472.463 149.299 480.387 149.261 484.521 150.511C581.911 288.53 525.101 415.353 484.521 461.513C478.521 464.974 474.905 456.992 473.848 452.569Z" fill="white"/>
<path d="M118.259 507.851C230.421 599.249 360.392 545.934 411.357 507.851C421.509 506.466 421.55 514.39 420.3 518.525C282.29 615.923 155.473 559.107 109.316 518.525C105.854 512.524 113.836 508.91 118.259 507.851Z" fill="white"/>
</g>
</g>
<defs>
<clipPath id="clip0_2_106">
<rect width="2813" height="573" fill="white"/>
</clipPath>
</defs>
</svg>
