<svg width="933" height="1090" viewBox="0 0 933 1090" fill="none" xmlns="http://www.w3.org/2000/svg">
<g clip-path="url(#clip0_2_50)">
<path d="M235 208.5V741L435.5 557L608.5 741H774L435.5 410.5L350 496V208.5H235Z" fill="#1E1C1A" stroke="black"/>
<path d="M530.5 459.5L457 383L630 208.5H775.5L530.5 459.5Z" fill="#FF8000"/>
<path d="M149.125 1088V994.875H168.75V1035.94H169.938L203.5 994.875H227.062L192.562 1036.56L227.5 1088H203.875L178.438 1049.75L168.75 1061.56V1088H149.125ZM377.125 994.875V1088H357.5V994.875H377.125ZM530.188 994.875L552.625 1065.62H553.562L576.062 994.875H597.875L565.75 1088H540.438L508.25 994.875H530.188ZM770.938 1089.25C762.688 1089.25 755.271 1087.38 748.688 1083.62C742.104 1079.88 736.896 1074.44 733.062 1067.31C729.229 1060.19 727.312 1051.58 727.312 1041.5C727.312 1031.33 729.229 1022.69 733.062 1015.56C736.896 1008.44 742.104 1003 748.688 999.25C755.271 995.5 762.688 993.625 770.938 993.625C779.188 993.625 786.583 995.5 793.125 999.25C799.708 1003 804.917 1008.44 808.75 1015.56C812.583 1022.69 814.5 1031.33 814.5 1041.5C814.5 1051.67 812.583 1060.31 808.75 1067.44C804.917 1074.52 799.708 1079.94 793.125 1083.69C786.583 1087.4 779.188 1089.25 770.938 1089.25ZM747.25 1041.5C747.25 1051.33 749.396 1058.85 753.688 1064.06C758.021 1069.27 763.771 1071.88 770.938 1071.88C778.062 1071.88 783.771 1069.27 788.062 1064.06C792.396 1058.85 794.562 1051.33 794.562 1041.5C794.562 1031.62 792.396 1024.08 788.062 1018.88C783.771 1013.62 778.062 1011 770.938 1011C763.771 1011 758.021 1013.62 753.688 1018.88C749.396 1024.08 747.25 1031.62 747.25 1041.5Z" fill="black"/>
<path d="M552.5 1036L568.521 994.75H536.479L552.5 1036Z" fill="#FF8000"/>
<path d="M710.468 111.703C516.068 -46.6968 290.802 45.7032 202.468 111.703C184.868 114.103 184.802 100.37 186.968 93.2032C426.168 -75.5968 645.968 22.8699 725.968 93.2032C731.968 103.603 718.135 109.87 710.468 111.703Z" fill="black"/>
<path d="M111.703 712.468C-46.6968 518.068 45.7032 292.802 111.703 204.468C114.103 186.868 100.37 186.802 93.2032 188.968C-75.5968 428.168 22.8699 647.968 93.2032 727.968C103.603 733.968 109.87 720.135 111.703 712.468Z" fill="black"/>
<path d="M821.278 724.468C979.678 530.068 887.278 304.802 821.278 216.468C818.878 198.868 832.611 198.802 839.778 200.968C1008.58 440.168 910.111 659.968 839.778 739.968C829.378 745.968 823.111 732.135 821.278 724.468Z" fill="black"/>
<path d="M204.968 820.278C399.368 978.678 624.635 886.278 712.968 820.278C730.568 817.878 730.635 831.611 728.468 838.778C489.268 1007.58 269.468 909.111 189.468 838.778C183.468 828.378 197.302 822.111 204.968 820.278Z" fill="black"/>
</g>
<defs>
<clipPath id="clip0_2_50">
<rect width="933" height="1090" fill="white"/>
</clipPath>
</defs>
</svg>
